<?xml version="1.0" encoding="UTF-8"?>
<svg width="78px" height="78px" viewBox="0 0 78 78" version="1.1" xmlns="http://www.w3.org/2000/svg" xmlns:xlink="http://www.w3.org/1999/xlink">
    <title>Group 2</title>
    <g id="Page-1" stroke="none" stroke-width="1" fill="none" fill-rule="evenodd">
        <g id="Group-2">
            <rect id="Rectangle" fill="#FFFFFF" x="0" y="0" width="78" height="78" rx="28"></rect>
            <g id="indigo_leaf_2" transform="translate(15.000000, 15.000000)" fill="#00BFB3" fill-rule="nonzero">
                <path d="M26.2381636,47.9999728 L7.72453372,47.9999728 C3.46286987,47.9999728 0.00633233855,44.5444211 0,40.2776654 L0,21.7763698 C0.0316360794,9.74032457 9.7860373,0 21.8077475,0 L40.964132,0 C44.8473141,0.00632682449 47.9936807,3.15645621 48,7.04428214 L48,26.281033 C47.990875,32.0503922 45.6929885,37.5798233 41.6118509,41.652911 C37.5307134,45.7259988 32.0006314,48.0090958 26.2381636,47.9999728 L26.2381636,47.9999728 Z M21.7503587,5.48143977 C12.7814443,5.48776791 5.51050471,12.7622617 5.49784792,21.7418953 L5.49784792,40.243191 C5.50416388,41.4699362 6.49923754,42.4610481 7.72453372,42.4610481 L26.2381636,42.4610481 C35.181722,42.4547201 42.4321065,35.2008058 42.4447633,26.2465586 L42.4447633,7.04428214 C42.4447633,6.63693487 42.2823685,6.24643682 41.993599,5.9594796 C41.7048296,5.67252239 41.3135924,5.51285148 40.9067432,5.51591424 L21.7503587,5.48143977 Z M21.8880918,31.9118622 C19.622639,31.9118622 17.5802573,30.5455543 16.713306,28.4500458 C15.8463548,26.3545374 16.3255652,23.9425027 17.9274822,22.33867 C19.5293993,20.7348372 21.9385528,20.2550537 24.0315583,21.1230418 C26.1245638,21.9910298 27.4892396,24.035854 27.4892396,26.304016 C27.4894008,29.3788435 25.0164741,31.8803578 21.9454806,31.9118622 L21.8880918,31.9118622 Z M30.6111908,21.0638975 C29.4588527,21.0638975 28.4202022,20.368285 27.9803014,19.301943 C27.5404006,18.235601 27.7860449,17.0089165 28.6025155,16.1947657 C29.418986,15.3806149 30.6451877,15.1396351 31.70847,15.5843668 C32.7717523,16.0290985 33.4623223,17.0717931 33.4576991,18.2255 C33.4513548,19.7949606 32.1787896,21.0638975 30.6111908,21.0638975 L30.6111908,21.0638975 Z" id="Shape"></path>
            </g>
        </g>
    </g>
</svg>