<?xml version="1.0" encoding="UTF-8"?>
<svg width="451px" height="24px" viewBox="0 0 451 24" version="1.1" xmlns="http://www.w3.org/2000/svg" xmlns:xlink="http://www.w3.org/1999/xlink">
    <title>footer</title>
    <g id="Page-1" stroke="none" stroke-width="1" fill="none" fill-rule="evenodd">
        <g id="Desktop-HD" transform="translate(-183.000000, -936.000000)" fill="#00BFB3" fill-rule="nonzero">
            <g id="footer" transform="translate(183.683820, 936.162612)">
                <path d="M8.2067569,9.77902383 L8.2067569,7.34915676 L5.4672009,7.34915676 L5.4672009,3.6448006 L2.98968938,3.6448006 L2.12017813,7.36106787 L-1.8189894e-12,7.36106787 L-1.8189894e-12,9.77902383 L2.00106699,9.77902383 L2.00106699,16.4849805 C2.00106699,18.4622252 2.83484491,19.808181 6.08657878,19.808181 C7.28960119,19.808181 7.92089019,19.6533366 8.24249024,19.5104032 L8.24249024,17.3664028 L6.58684552,17.3664028 C5.82453429,17.3664028 5.47911201,17.2472917 5.47911201,16.3420471 L5.4672009,9.77902383 L8.2067569,9.77902383 Z" id="Path"></path>
                <path d="M10.7583807,19.6771588 L14.2364257,19.6771588 L14.2364257,11.7443575 C14.2364257,10.6128017 15.3560703,9.98151275 16.5114483,9.98151275 C17.643004,9.98151275 18.5720709,10.6008906 18.5720709,11.6490686 L18.5720709,19.6771588 L22.0501159,19.6771588 L22.0501159,11.1607129 C22.0501159,8.83804589 20.1086044,7.28960119 17.7502041,7.28960119 C15.7967815,7.28960119 14.8081591,8.12337911 14.2126035,8.98097925 L14.2126035,1.97724477 L10.7583807,1.97724477 L10.7583807,19.6771588 Z" id="Path"></path>
                <path d="M27.770095,14.3171579 L36.0125853,14.3171579 L36.0125853,13.37618 C36.0125853,9.68373492 34.0353405,7.12284561 30.295251,7.12284561 C26.5194282,7.12284561 24.3277834,9.95769052 24.3277834,13.6620467 C24.3277834,17.485514 26.8291171,19.915381 30.4620066,19.915381 C33.034807,19.915381 35.5242297,18.4264919 36.0006742,15.7703137 L32.8680514,15.7703137 C32.4511625,16.9376028 31.5816512,17.4021362 30.3786288,17.4021362 C28.7229841,17.4021362 27.7581839,16.1991138 27.770095,14.3171579 Z M27.7581839,12.2446242 C27.7581839,10.8867573 28.6872508,9.55271268 30.2833399,9.55271268 C31.9508957,9.55271268 32.7727625,10.7557351 32.7727625,12.2446242 L27.7581839,12.2446242 Z" id="Shape"></path>
                <polygon id="Path" points="43.5695225 2.45368929 43.5695225 19.6771588 47.0594786 19.6771588 47.0594786 2.45368929"></polygon>
                <path d="M50.4448808,19.6771588 L53.9229258,19.6771588 L53.9229258,11.7086241 C53.9229258,10.5770684 55.0663927,9.98151275 56.2336817,9.98151275 C57.3652375,9.98151275 58.2704821,10.6723573 58.2704821,11.8872908 L58.2704821,19.6771588 L61.7604382,19.6771588 L61.7604382,11.4704019 C61.7604382,8.89760146 59.6998156,7.25386786 57.4486153,7.25386786 C55.4951927,7.25386786 54.6018592,8.04000132 53.8752813,8.94524591 L53.8752813,7.36106787 L50.4448808,7.36106787 L50.4448808,19.6771588 Z" id="Path"></path>
                <path d="M69.3266399,19.915381 C71.7326847,19.915381 72.7927738,18.5098697 73.2215739,17.1520028 L73.6265517,19.6771588 L76.1517077,19.6771588 L76.1517077,1.97724477 L72.6617515,1.97724477 L72.6617515,8.99289036 C72.0661959,7.95662353 70.7202401,7.12284561 68.9812176,7.12284561 C65.7890393,7.12284561 64.1095724,9.69564603 64.1095724,13.4476466 C64.1095724,17.3902251 65.9319727,19.915381 69.3266399,19.915381 Z M70.1008622,17.4140473 C68.600062,17.4140473 67.5042396,16.3063138 67.5042396,13.4119133 C67.5042396,10.6842684 68.5643287,9.64800158 70.0889511,9.64800158 C71.8756181,9.64800158 72.6379293,11.0296907 72.6617515,12.5066687 L72.6617515,14.436269 C72.6498404,16.2467582 71.6016625,17.4140473 70.1008622,17.4140473 Z" id="Shape"></path>
                <path d="M82.6339981,2.4656004 L79.251242,2.4656004 L79.251242,5.59822314 L82.6339981,5.59822314 L82.6339981,2.4656004 Z M82.6101758,7.36106787 L79.2869753,7.36106787 L79.2869753,19.6771588 L82.6101758,19.6771588 L82.6101758,7.36106787 Z" id="Shape"></path>
                <path d="M91.4985123,23.7507594 C95.7984241,23.7507594 98.0615356,22.1308481 98.0615356,19.7724477 C98.0615356,17.8785807 96.6917576,16.4611583 93.571046,16.2467582 C92.4871347,16.1752915 91.5342457,16.1276471 91.0220678,16.0919137 C89.568912,16.008536 88.8661563,15.9489804 88.8661563,15.5559137 C88.8661563,15.3057803 89.1520231,15.0913803 90.093001,15.0437358 C90.3907788,15.0794691 91.0101567,15.0913803 91.2960234,15.0913803 C95.0003796,15.0913803 96.8823354,13.1022244 96.8823354,11.0177796 C96.8823354,10.7319129 96.7513132,10.112535 96.6083798,9.71946826 L98.728558,9.37404598 L98.7523802,6.68213443 C97.7161133,7.1109345 95.8698908,7.84942351 95.1314018,8.13529022 C94.2142461,7.5635568 93.2375348,7.17049006 91.5461568,7.17049006 C88.2825118,7.17049006 85.7097114,8.56409029 85.7097114,11.0296907 C85.7097114,12.4232909 86.4839337,13.7811578 88.199134,14.5792024 C86.4958448,14.8769802 85.673978,15.698847 85.673978,16.5683583 C85.673978,17.7356474 86.8055338,18.1763585 87.1866894,18.4026697 C86.9484671,18.5336919 84.7925557,19.0458698 84.7925557,20.7253367 C84.7925557,22.4762704 87.043756,23.7507594 91.4985123,23.7507594 Z M91.4032234,13.1498688 C90.0334454,13.1498688 89.1996675,12.3637354 89.1996675,11.1368907 C89.1996675,9.89813496 90.0453565,9.00480148 91.4032234,9.00480148 C92.7134459,9.00480148 93.5948682,9.8504905 93.5948682,11.1368907 C93.5948682,12.3637354 92.7968237,13.1498688 91.4032234,13.1498688 Z M92.0583346,21.809248 C89.4855342,21.809248 88.199134,21.3923591 88.199134,20.3203589 C88.199134,19.5580477 88.9495341,18.855292 90.0572677,18.9148475 L92.8802014,19.1054254 C94.1427794,19.1888031 94.7502462,19.6652477 94.7502462,20.4275589 C94.7502462,21.3208924 93.9045572,21.809248 92.0583346,21.809248 Z" id="Shape"></path>
                <path d="M105.258493,19.915381 C108.950938,19.915381 111.214049,17.2830251 111.214049,13.59058 C111.214049,9.83857939 108.986671,7.12284561 105.282315,7.12284561 C101.69707,7.12284561 99.3029363,9.74329049 99.3029363,13.6024911 C99.3029363,17.3068473 101.566048,19.915381 105.258493,19.915381 Z M105.282315,17.3306695 C103.352715,17.3306695 102.709515,15.3891581 102.709515,13.4714689 C102.709515,11.5299574 103.352715,9.68373492 105.282315,9.68373492 C107.176182,9.68373492 107.819382,11.5180463 107.819382,13.4714689 C107.819382,15.4010692 107.200004,17.3306695 105.282315,17.3306695 Z" id="Shape"></path>
                <path d="M118.223075,23.5125372 L121.70112,23.5125372 L121.70112,17.8904918 C122.558721,19.486581 123.642632,19.915381 124.869476,19.915381 C127.740055,19.915381 130.229477,17.8904918 130.229477,13.4238244 C130.229477,9.13582372 128.002099,7.12284561 125.298277,7.12284561 C123.678365,7.12284561 122.463432,7.90897907 121.70112,8.92142368 L121.70112,7.36106787 L118.223075,7.36106787 L118.223075,23.5125372 Z M124.190543,17.4140473 C123.058987,17.4140473 122.058454,16.5207138 121.70112,15.3057803 L121.70112,12.1374242 C121.70112,10.9701351 122.832676,9.64800158 124.250099,9.64800158 C125.679432,9.64800158 126.977743,10.9224907 126.977743,13.4476466 C126.977743,16.0800026 125.727077,17.4140473 124.190543,17.4140473 Z" id="Shape"></path>
                <path d="M132.626256,19.6771588 L136.104301,19.6771588 L136.104301,12.9354688 C136.104301,11.3989352 137.069101,10.1840017 140.130257,10.434135 C140.261279,10.4460462 140.273191,10.4460462 140.344657,10.4698684 L140.344657,7.14666784 C140.320835,7.13475673 140.225546,7.12284561 140.118346,7.12284561 C137.91479,7.12284561 136.568834,8.55217918 135.973279,10.2792906 L135.973279,7.36106787 L132.626256,7.36106787 L132.626256,19.6771588 Z" id="Path"></path>
                <path d="M147.624993,19.915381 C151.317438,19.915381 153.580549,17.2830251 153.580549,13.59058 C153.580549,9.83857939 151.353171,7.12284561 147.648815,7.12284561 C144.06357,7.12284561 141.669436,9.74329049 141.669436,13.6024911 C141.669436,17.3068473 143.932548,19.915381 147.624993,19.915381 Z M147.648815,17.3306695 C145.719215,17.3306695 145.076015,15.3891581 145.076015,13.4714689 C145.076015,11.5299574 145.719215,9.68373492 147.648815,9.68373492 C149.542682,9.68373492 150.185882,11.5180463 150.185882,13.4714689 C150.185882,15.4010692 149.566504,17.3306695 147.648815,17.3306695 Z" id="Shape"></path>
                <path d="M159.657862,2.4656004 L156.10835,2.4656004 L156.10835,5.59822314 L159.657862,5.59822314 L159.657862,2.4656004 Z M159.63404,19.593781 L159.63404,7.36106787 L156.144084,7.36106787 L156.144084,19.5580477 C156.144084,20.3560922 155.834395,20.7372478 154.845772,20.8801812 L153.892883,20.963559 L153.904795,23.286226 C153.904795,23.286226 154.190661,23.6316483 155.477061,23.6316483 C158.395284,23.6316483 159.63404,22.2856925 159.63404,19.593781 Z" id="Shape"></path>
                <path d="M165.532687,14.3171579 L173.775177,14.3171579 L173.775177,13.37618 C173.775177,9.68373492 171.797932,7.12284561 168.057843,7.12284561 C164.28202,7.12284561 162.090375,9.95769052 162.090375,13.6620467 C162.090375,17.485514 164.591709,19.915381 168.224599,19.915381 C170.797399,19.915381 173.286822,18.4264919 173.763266,15.7703137 L170.630643,15.7703137 C170.213754,16.9376028 169.344243,17.4021362 168.141221,17.4021362 C166.485576,17.4021362 165.520776,16.1991138 165.532687,14.3171579 Z M165.520776,12.2446242 C165.520776,10.8867573 166.449843,9.55271268 168.045932,9.55271268 C169.713488,9.55271268 170.535355,10.7557351 170.535355,12.2446242 L165.520776,12.2446242 Z" id="Shape"></path>
                <path d="M181.424757,7.12284561 C177.92289,7.12284561 175.481111,9.77902383 175.481111,13.5786689 C175.481111,17.3425806 177.958623,19.915381 181.424757,19.915381 C184.366802,19.915381 186.37978,17.9976918 186.558447,15.377247 L183.735513,15.377247 C183.556846,16.2944027 182.866002,17.4497806 181.531957,17.4497806 C179.85249,17.4497806 178.720934,15.9608915 178.720934,13.5310244 C178.720934,11.1488018 179.792934,9.76711271 181.484312,9.76711271 C182.782624,9.76711271 183.461557,10.7676462 183.699779,11.8634686 L186.606091,11.8396464 C186.391691,9.17155706 184.462091,7.12284561 181.424757,7.12284561 Z" id="Path"></path>
                <path d="M196.292471,9.77902383 L196.292471,7.34915676 L193.552915,7.34915676 L193.552915,3.6448006 L191.075404,3.6448006 L190.205892,7.36106787 L188.085714,7.36106787 L188.085714,9.77902383 L190.086781,9.77902383 L190.086781,16.4849805 C190.086781,18.4622252 190.920559,19.808181 194.172293,19.808181 C195.375315,19.808181 196.006604,19.6533366 196.328205,19.5104032 L196.328205,17.3664028 L194.67256,17.3664028 C193.910249,17.3664028 193.564826,17.2472917 193.564826,16.3420471 L193.552915,9.77902383 L196.292471,9.77902383 Z" id="Path"></path>
                <polygon id="Path" opacity="0.294852121" points="223.927573 23.5125372 223.927573 1.13686838e-13 222.617351 1.13686838e-13 222.629262 23.5125372"></polygon>
                <path d="M254.087832,19.915381 C255.874499,19.915381 257.506321,19.3555587 258.530677,17.3664028 L258.637877,19.6771588 L259.995744,19.6771588 L259.995744,11.1130685 C259.995744,8.6593792 258.292455,7.12284561 255.386143,7.12284561 C252.479832,7.12284561 250.800365,8.80231255 250.669342,10.743824 L252.146321,10.743824 C252.420276,9.19537929 253.718587,8.3854236 255.314677,8.3854236 C257.208544,8.37351248 258.471122,9.40977932 258.471122,11.1845352 L258.471122,12.2684465 L255.957877,12.3399131 C251.800898,12.4590243 250.085698,13.69778 250.085698,16.437336 C250.085698,18.6170697 251.669876,19.915381 254.087832,19.915381 Z M254.480899,18.6885364 C252.77761,18.6885364 251.622232,17.807114 251.622232,16.2944027 C251.622232,14.3171579 252.980098,13.5072022 256.374766,13.4476466 L258.471122,13.4000022 L258.471122,15.6631137 C258.471122,17.1877362 256.339032,18.6885364 254.480899,18.6885364 Z" id="Shape"></path>
                <path d="M269.47037,19.6771588 L271.030726,19.6771588 L271.030726,11.2440907 C271.030726,9.38595709 272.722104,8.50453473 274.663616,8.50453473 C276.521749,8.50453473 277.712861,9.64800158 277.712861,11.7443575 L277.712861,19.6771588 L279.273216,19.6771588 L279.273216,11.6371575 C279.273216,8.63555697 277.367438,7.15857895 274.961393,7.15857895 C272.972238,7.15857895 271.626282,8.0280902 270.959259,9.13582372 L270.959259,7.36106787 L269.47037,7.36106787 L269.47037,19.6771588 Z" id="Path"></path>
                <path d="M284.016484,13.8883578 L293.057019,13.8883578 L293.057019,13.1498688 C293.057019,9.38595709 291.163152,7.12284561 287.875685,7.12284561 C284.409551,7.12284561 282.420395,9.64800158 282.420395,13.6382245 C282.420395,17.6165362 284.707329,19.915381 288.018618,19.915381 C290.305552,19.915381 292.306619,18.7838253 292.937908,16.2348471 L291.413286,16.2348471 C290.913019,17.7594696 289.74573,18.5932475 288.006707,18.5932475 C285.25524,18.5932475 284.016484,16.4492471 284.016484,13.8883578 Z M284.028395,12.6972465 C284.016484,10.6128017 285.195685,8.42115694 287.851863,8.42115694 C290.341285,8.42115694 291.520486,10.2554683 291.520486,12.6972465 L284.028395,12.6972465 Z" id="Shape"></path>
                <polygon id="Path" points="311.807756 7.36106787 310.295045 7.36106787 307.388733 17.7237362 307.150511 17.7237362 303.958333 7.36106787 302.695755 7.36106787 299.658421 17.7594696 299.420199 17.7594696 296.370954 7.36106787 294.858242 7.36106787 298.57451 19.6771588 300.456466 19.6771588 303.315133 9.7552016 306.376289 19.6771588 308.246334 19.6771588"></polygon>
                <polygon id="Path" points="336.338029 7.36106787 334.825317 7.36106787 331.919006 17.7237362 331.680783 17.7237362 328.488605 7.36106787 327.226027 7.36106787 324.188693 17.7594696 323.950471 17.7594696 320.901226 7.36106787 319.388515 7.36106787 323.104782 19.6771588 324.986738 19.6771588 327.845405 9.7552016 330.906561 19.6771588 332.776606 19.6771588"></polygon>
                <path d="M341.950807,19.915381 C343.737474,19.915381 345.369297,19.3555587 346.393652,17.3664028 L346.500852,19.6771588 L347.858719,19.6771588 L347.858719,11.1130685 C347.858719,8.6593792 346.15543,7.12284561 343.249118,7.12284561 C340.342807,7.12284561 338.66334,8.80231255 338.532318,10.743824 L340.009296,10.743824 C340.283251,9.19537929 341.581563,8.3854236 343.177652,8.3854236 C345.071519,8.37351248 346.334097,9.40977932 346.334097,11.1845352 L346.334097,12.2684465 L343.820852,12.3399131 C339.663873,12.4590243 337.948673,13.69778 337.948673,16.437336 C337.948673,18.6170697 339.532851,19.915381 341.950807,19.915381 Z M342.343874,18.6885364 C340.640585,18.6885364 339.485207,17.807114 339.485207,16.2944027 C339.485207,14.3171579 340.843074,13.5072022 344.237741,13.4476466 L346.334097,13.4000022 L346.334097,15.6631137 C346.334097,17.1877362 344.202007,18.6885364 342.343874,18.6885364 Z" id="Shape"></path>
                <path d="M352.62581,23.6078261 C354.221899,23.6078261 355.424921,22.9884482 356.211055,21.0469368 L361.499589,7.36106787 L359.974966,7.36106787 L356.044299,17.6165362 L352.065987,7.36106787 L350.469898,7.36106787 L355.270077,19.4984921 L354.757899,20.9040034 C354.44821,21.6424924 353.91221,22.3809814 352.244654,22.3452481 L350.946343,22.333337 L350.946343,23.3576927 C350.946343,23.3576927 351.315587,23.6078261 352.62581,23.6078261 Z" id="Path"></path>
                <path d="M375.595727,8.56409029 L375.595727,7.36106787 L372.796615,7.36106787 L372.796615,3.84728952 L371.629326,3.84728952 L371.271993,7.36106787 L369.235193,7.36106787 L369.235193,8.56409029 L371.23626,8.56409029 L371.23626,16.8065805 C371.23626,18.7838253 371.843726,19.7128921 374.035371,19.7128921 C374.785771,19.7128921 375.381327,19.6533366 375.702927,19.5461365 L375.702927,18.4145808 L374.499905,18.4145808 C373.153949,18.4145808 372.796615,18.2954697 372.796615,16.7708472 L372.796615,8.56409029 L375.595727,8.56409029 Z" id="Path"></path>
                <path d="M383.69793,19.915381 C387.152152,19.915381 389.153219,17.3068473 389.153219,13.5667578 C389.153219,9.80284605 387.164064,7.12284561 383.721752,7.12284561 C380.267529,7.12284561 378.230729,9.80284605 378.230729,13.6024911 C378.230729,17.3306695 380.207974,19.915381 383.69793,19.915381 Z M383.745574,18.6170697 C381.089396,18.6170697 379.802996,16.4730694 379.802996,13.5310244 C379.802996,10.5770684 381.089396,8.43306805 383.721752,8.43306805 C386.330286,8.43306805 387.580953,10.5532462 387.580953,13.5310244 C387.580953,16.4849805 386.366019,18.6170697 383.745574,18.6170697 Z" id="Shape"></path>
                <path d="M402.784824,23.7507594 C406.48918,23.7507594 408.585536,22.3690703 408.585536,20.0464033 C408.585536,18.1763585 407.418247,16.961425 404.785891,16.8065805 C403.642424,16.7351139 402.725269,16.6874694 402.058246,16.6398249 C400.212024,16.5088027 399.604557,16.3539582 399.604557,15.8656026 C399.604557,15.4010692 400.235846,14.9246247 402.30838,14.8769802 C402.463224,14.8769802 402.665713,14.8888913 402.808646,14.8888913 C406.179491,14.8888913 407.716025,13.1617799 407.716025,11.0773351 C407.716025,10.5413351 407.477803,9.67182381 407.23958,9.21920151 L409.419314,8.77849033 L409.419314,7.07520116 C408.930958,7.26577897 406.929891,8.111468 406.513003,8.29013469 C405.572025,7.55164568 404.55958,7.17049006 402.999224,7.17049006 C399.878513,7.17049006 397.877446,8.62364586 397.877446,11.0892463 C397.877446,12.5900465 398.496823,13.6144022 400.092913,14.436269 C398.770779,14.7816913 398.079934,15.4129803 398.079934,16.1276471 C398.079934,16.9733361 398.794601,17.2830251 399.235312,17.5450695 C398.901801,17.8190251 396.936468,18.5813364 396.936468,20.4037367 C396.936468,22.4643592 398.99709,23.7507594 402.784824,23.7507594 Z M402.856291,13.7454245 C400.664646,13.7454245 399.437801,12.7925354 399.437801,11.0773351 C399.437801,9.33831264 400.688468,8.29013469 402.856291,8.29013469 C404.857358,8.29013469 406.215225,9.21920151 406.215225,11.0773351 C406.215225,12.8163577 405.083669,13.7454245 402.856291,13.7454245 Z M403.082602,22.6072926 C400.152468,22.6072926 398.508735,21.7854258 398.508735,20.22507 C398.508735,18.8910253 399.985713,17.9262252 400.81949,17.9857807 L404.595313,18.224003 C406.38198,18.331203 407.037092,19.0458698 407.037092,20.2012478 C407.037092,21.8449814 405.321891,22.6072926 403.082602,22.6072926 Z" id="Shape"></path>
                <path d="M412.316359,19.6771588 L413.876715,19.6771588 L413.876715,11.5537797 C413.876715,9.58844602 415.53236,8.61173474 417.938405,8.69511254 C418.128983,8.69511254 418.140894,8.69511254 418.248094,8.7546681 L418.248094,7.19431229 C418.164716,7.14666784 418.057516,7.12284561 417.926494,7.12284561 C415.877782,7.12284561 414.412715,8.15911245 413.781426,9.45742377 L413.781426,7.36106787 L412.316359,7.36106787 L412.316359,19.6771588 Z" id="Path"></path>
                <path d="M425.719008,19.915381 C429.17323,19.915381 431.174297,17.3068473 431.174297,13.5667578 C431.174297,9.80284605 429.185141,7.12284561 425.74283,7.12284561 C422.288607,7.12284561 420.251807,9.80284605 420.251807,13.6024911 C420.251807,17.3306695 422.229051,19.915381 425.719008,19.915381 Z M425.766652,18.6170697 C423.110474,18.6170697 421.824074,16.4730694 421.824074,13.5310244 C421.824074,10.5770684 423.110474,8.43306805 425.74283,8.43306805 C428.351364,8.43306805 429.60203,10.5532462 429.60203,13.5310244 C429.60203,16.4849805 428.387097,18.6170697 425.766652,18.6170697 Z" id="Shape"></path>
                <polygon id="Path" points="449.901212 7.36106787 448.388501 7.36106787 445.482189 17.7237362 445.243967 17.7237362 442.051789 7.36106787 440.789211 7.36106787 437.751877 17.7594696 437.513655 17.7594696 434.46441 7.36106787 432.951698 7.36106787 436.667966 19.6771588 438.549921 19.6771588 441.408589 9.7552016 444.469745 19.6771588 446.339789 19.6771588"></polygon>
            </g>
        </g>
    </g>
</svg>