<?xml version="1.0" encoding="UTF-8"?>
<svg width="225px" height="70px" viewBox="0 0 225 70" version="1.1" xmlns="http://www.w3.org/2000/svg" xmlns:xlink="http://www.w3.org/1999/xlink">
    <title>logo</title>
    <g id="Page-1" stroke="none" stroke-width="1" fill="none" fill-rule="evenodd">
        <g id="Desktop-HD" transform="translate(-297.000000, -74.000000)" fill-rule="nonzero">
            <g id="logo" transform="translate(297.000000, 74.000000)">
                <g id="indigo_leaf_2" fill="#00BFB3">
                    <path d="M38.2639885,69.9999603 L11.264945,69.9999603 C5.05001856,69.9999603 0.00923466038,64.960614 0,58.7382621 L0,31.7572059 C0.0461359491,14.20464 14.2713044,0 31.8029651,0 L59.7393592,0 C65.402333,0.00922661904 69.9907844,4.60316531 70,10.2729115 L70,38.3265065 C69.9866926,46.7401552 66.6356082,54.803909 60.6839493,60.7438286 C54.7322903,66.6837482 46.6675874,70.0132647 38.2639885,69.9999603 L38.2639885,69.9999603 Z M31.7192731,7.99376634 C18.6396062,8.00299487 8.03615271,18.6116317 8.01769488,31.7069306 L8.01769488,58.6879868 C8.02690566,60.4769902 9.47805475,61.9223619 11.264945,61.9223619 L38.2639885,61.9223619 C51.3066779,61.9131334 61.8801554,51.3345085 61.8986131,38.2762313 L61.8986131,10.2729115 C61.8986131,9.67886334 61.6617874,9.10938703 61.2406653,8.69090775 C60.8195431,8.27242848 60.2489889,8.03957507 59.6556671,8.0440416 L31.7192731,7.99376634 Z M31.9201339,46.5381323 C28.6163486,46.5381323 25.6378752,44.5456001 24.3735713,41.4896502 C23.1092674,38.4337003 23.8081159,34.9161498 26.1442449,32.5772271 C28.480374,30.2383043 31.9937228,29.53862 35.0460225,30.8044359 C38.0983221,32.0702518 40.0884744,35.0522871 40.0884744,38.3600234 C40.0887095,42.8441467 36.482358,46.4921884 32.0038259,46.5381323 L31.9201339,46.5381323 Z M44.6413199,30.7181839 C42.9608268,30.7181839 41.4461282,29.703749 40.8046062,28.1486668 C40.1630842,26.5935847 40.5213155,24.8046699 41.7120017,23.6173666 C42.902688,22.4300633 44.6908988,22.0786345 46.2415188,22.7272016 C47.7921387,23.3757687 48.79922,24.896365 48.7924778,26.5788541 C48.7832257,28.8676509 46.9274015,30.7181839 44.6413199,30.7181839 L44.6413199,30.7181839 Z" id="Shape"></path>
                </g>
                <g id="indigo" transform="translate(94.000000, 9.000000)" fill="#444444">
                    <polygon id="Shape" points="0 14.1566265 4.47630675 14.1566265 4.47630675 37.9518072 0 37.9518072"></polygon>
                    <path d="M10.6125051,14.1566265 L15.0888119,14.1566265 L15.0888119,17.8212851 L15.1882854,17.8212851 C15.7519685,16.5495315 16.7301244,15.520415 18.1227531,14.7339357 C19.5153819,13.9474565 21.1235366,13.5542169 22.9472171,13.5542169 C24.0745832,13.5542169 25.1605021,13.7299197 26.2049737,14.0813253 C27.2494453,14.4327309 28.1612855,14.976573 28.9404945,15.7128514 C29.7197034,16.4491299 30.3414127,17.3945783 30.8056223,18.5491968 C31.2698319,19.7038153 31.5019367,21.0676037 31.5019367,22.6405622 L31.5019367,37.9518072 L27.0256299,37.9518072 L27.0256299,23.8955823 C27.0256299,22.7911647 26.8764197,21.8457162 26.5779992,21.0592369 C26.2795788,20.2727577 25.8816849,19.6368809 25.3843174,19.1516064 C24.88695,18.666332 24.3149775,18.3149264 23.6683998,18.0973896 C23.0218222,17.8798527 22.3503762,17.7710843 21.6540618,17.7710843 C20.7256426,17.7710843 19.8635391,17.9216867 19.0677512,18.2228916 C18.2719634,18.5240964 17.575649,19.001004 16.9788081,19.6536145 C16.3819672,20.3062249 15.9177576,21.1345382 15.5861793,22.1385542 C15.254601,23.1425703 15.0888119,24.330656 15.0888119,25.7028112 L15.0888119,37.9518072 L10.6125051,37.9518072 L10.6125051,14.1566265 Z" id="Path"></path>
                    <path d="M60.9149302,37.9518072 L56.4386234,37.9518072 L56.4386234,34.5381526 L56.3391499,34.5381526 C55.4770464,35.8099063 54.2916541,36.7971888 52.7829729,37.5 C51.2742917,38.2028112 49.7241633,38.5542169 48.1325876,38.5542169 C46.308907,38.5542169 44.6593051,38.2362784 43.1837818,37.6004016 C41.7082584,36.9645248 40.448261,36.0776439 39.4037894,34.939759 C38.3593178,33.8018742 37.5552405,32.4799197 36.9915574,30.9738956 C36.4278743,29.4678715 36.1460328,27.8279786 36.1460328,26.0542169 C36.1460328,24.2804552 36.4278743,22.6321954 36.9915574,21.1094378 C37.5552405,19.5866801 38.3593178,18.2647256 39.4037894,17.1435743 C40.448261,16.022423 41.7082584,15.143909 43.1837818,14.5080321 C44.6593051,13.8721553 46.308907,13.5542169 48.1325876,13.5542169 C49.8236368,13.5542169 51.4152125,13.9139893 52.9073148,14.6335341 C54.399417,15.353079 55.5433621,16.3319946 56.3391499,17.5702811 L56.4386234,17.5702811 L56.4386234,0 L60.9149302,0 L60.9149302,37.9518072 Z M48.6796917,34.3373494 C49.8733735,34.3373494 50.9510029,34.1281794 51.9125799,33.7098394 C52.8741569,33.2914993 53.6865237,32.7225569 54.3496803,32.003012 C55.0128368,31.2834672 55.5267832,30.4133199 55.8915193,29.3925703 C56.2562554,28.3718206 56.4386234,27.2590361 56.4386234,26.0542169 C56.4386234,24.8493976 56.2562554,23.7366131 55.8915193,22.7158635 C55.5267832,21.6951138 55.0128368,20.8249665 54.3496803,20.1054217 C53.6865237,19.3858768 52.8741569,18.8169344 51.9125799,18.3985944 C50.9510029,17.9802544 49.8733735,17.7710843 48.6796917,17.7710843 C47.4860099,17.7710843 46.4083805,17.9802544 45.4468035,18.3985944 C44.4852265,18.8169344 43.6728597,19.3858768 43.0097032,20.1054217 C42.3465466,20.8249665 41.8326003,21.6951138 41.4678642,22.7158635 C41.1031281,23.7366131 40.92076,24.8493976 40.92076,26.0542169 C40.92076,27.2590361 41.1031281,28.3718206 41.4678642,29.3925703 C41.8326003,30.4133199 42.3465466,31.2834672 43.0097032,32.003012 C43.6728597,32.7225569 44.4852265,33.2914993 45.4468035,33.7098394 C46.4083805,34.1281794 47.4860099,34.3373494 48.6796917,34.3373494 Z" id="Shape"></path>
                    <polygon id="Shape" points="67.0511286 14.1566265 71.5274353 14.1566265 71.5274353 37.9518072 67.0511286 37.9518072"></polygon>
                    <path d="M101.288586,37.751004 C101.288586,39.5582329 100.981876,41.2064926 100.368456,42.6957831 C99.7550365,44.1850736 98.8846435,45.4735609 97.7572774,46.561245 C96.6299112,47.648929 95.2704403,48.4939759 93.6788646,49.0963855 C92.0872888,49.6987952 90.3299239,50 88.4067699,50 C86.1520376,50 84.0879629,49.6820616 82.2145456,49.0461847 C80.3411283,48.4103079 78.5588951,47.3058902 76.8678459,45.7329317 L79.9017871,41.9176707 C81.0623111,43.1894244 82.3223085,44.1516064 83.6817795,44.8042169 C85.0412504,45.4568273 86.5830894,45.7831325 88.3072964,45.7831325 C89.9651878,45.7831325 91.3412377,45.5404953 92.435446,45.0552209 C93.5296543,44.5699465 94.4000473,43.9424364 95.0466249,43.1726908 C95.6932026,42.4029451 96.1491227,41.5244311 96.4143853,40.5371486 C96.679648,39.5498661 96.8122793,38.5542169 96.8122793,37.5502008 L96.8122793,34.0361446 L96.6630691,34.0361446 C95.8009655,35.4752343 94.6321521,36.5378179 93.1566288,37.2238956 C91.6811054,37.9099732 90.130977,38.253012 88.5062434,38.253012 C86.7820364,38.253012 85.1821712,37.9434404 83.7066478,37.3242972 C82.2311245,36.7051539 80.9628376,35.8517403 79.9017871,34.7640562 C78.8407366,33.6763722 78.0117909,32.3878849 77.41495,30.8985944 C76.8181091,29.4093039 76.5196887,27.7945114 76.5196887,26.0542169 C76.5196887,24.3139224 76.8015302,22.6823963 77.3652133,21.1596386 C77.9288963,19.6368809 78.7329737,18.3065596 79.7774452,17.1686747 C80.8219168,16.0307898 82.0819143,15.143909 83.5574376,14.5080321 C85.032961,13.8721553 86.6825629,13.5542169 88.5062434,13.5542169 C90.0978191,13.5542169 91.6479476,13.9056225 93.1566288,14.6084337 C94.6653099,15.311245 95.8507023,16.2985274 96.7128058,17.5702811 L96.8122793,17.5702811 L96.8122793,14.1566265 L101.288586,14.1566265 L101.288586,37.751004 Z M89.0533476,17.7710843 C87.8596658,17.7710843 86.7820364,17.9802544 85.8204594,18.3985944 C84.8588824,18.8169344 84.0465156,19.3858768 83.383359,20.1054217 C82.7202025,20.8249665 82.2062561,21.6951138 81.84152,22.7158635 C81.4767839,23.7366131 81.2944159,24.8493976 81.2944159,26.0542169 C81.2944159,28.4638554 81.9907302,30.3965863 83.383359,31.8524096 C84.7759878,33.3082329 86.665984,34.0361446 89.0533476,34.0361446 C91.4407112,34.0361446 93.3307074,33.3082329 94.7233361,31.8524096 C96.1159649,30.3965863 96.8122793,28.4638554 96.8122793,26.0542169 C96.8122793,24.8493976 96.6299112,23.7366131 96.2651751,22.7158635 C95.900439,21.6951138 95.3864927,20.8249665 94.7233361,20.1054217 C94.0601796,19.3858768 93.2478128,18.8169344 92.2862358,18.3985944 C91.3246588,17.9802544 90.2470294,17.7710843 89.0533476,17.7710843 Z" id="Shape"></path>
                    <path d="M110.707409,26.0542169 C110.707409,27.2590361 110.889777,28.3718206 111.254514,29.3925703 C111.61925,30.4133199 112.133196,31.2834672 112.796353,32.003012 C113.459509,32.7225569 114.271876,33.2914993 115.233453,33.7098394 C116.19503,34.1281794 117.272659,34.3373494 118.466341,34.3373494 C119.660023,34.3373494 120.737652,34.1281794 121.699229,33.7098394 C122.660806,33.2914993 123.473173,32.7225569 124.13633,32.003012 C124.799486,31.2834672 125.313433,30.4133199 125.678169,29.3925703 C126.042905,28.3718206 126.225273,27.2590361 126.225273,26.0542169 C126.225273,24.8493976 126.042905,23.7366131 125.678169,22.7158635 C125.313433,21.6951138 124.799486,20.8249665 124.13633,20.1054217 C123.473173,19.3858768 122.660806,18.8169344 121.699229,18.3985944 C120.737652,17.9802544 119.660023,17.7710843 118.466341,17.7710843 C117.272659,17.7710843 116.19503,17.9802544 115.233453,18.3985944 C114.271876,18.8169344 113.459509,19.3858768 112.796353,20.1054217 C112.133196,20.8249665 111.61925,21.6951138 111.254514,22.7158635 C110.889777,23.7366131 110.707409,24.8493976 110.707409,26.0542169 Z M105.932682,26.0542169 C105.932682,24.3139224 106.255971,22.6907631 106.902549,21.184739 C107.549126,19.6787149 108.436098,18.3567604 109.563464,17.2188755 C110.69083,16.0809906 112.017144,15.185743 113.542404,14.5331325 C115.067664,13.8805221 116.708976,13.5542169 118.466341,13.5542169 C120.223706,13.5542169 121.865018,13.8805221 123.390279,14.5331325 C124.915539,15.185743 126.241852,16.0809906 127.369218,17.2188755 C128.496584,18.3567604 129.383556,19.6787149 130.030134,21.184739 C130.676711,22.6907631 131,24.3139224 131,26.0542169 C131,27.7945114 130.676711,29.4260375 130.030134,30.9487952 C129.383556,32.4715529 128.496584,33.7935074 127.369218,34.9146586 C126.241852,36.0358099 124.915539,36.9226908 123.390279,37.5753012 C121.865018,38.2279116 120.223706,38.5542169 118.466341,38.5542169 C116.708976,38.5542169 115.067664,38.2279116 113.542404,37.5753012 C112.017144,36.9226908 110.69083,36.0358099 109.563464,34.9146586 C108.436098,33.7935074 107.549126,32.4715529 106.902549,30.9487952 C106.255971,29.4260375 105.932682,27.7945114 105.932682,26.0542169 Z" id="Shape"></path>
                </g>
            </g>
        </g>
    </g>
</svg>