<?xml version="1.0" encoding="UTF-8"?>
<svg width="798px" height="135px" viewBox="0 0 798 135" version="1.1" xmlns="http://www.w3.org/2000/svg" xmlns:xlink="http://www.w3.org/1999/xlink">
    <title>payoff</title>
    <g id="Page-1" stroke="none" stroke-width="1" fill="none" fill-rule="evenodd">
        <g id="Desktop-HD" transform="translate(-11.000000, -401.000000)" fill="#4B4B4B" fill-rule="nonzero">
            <g id="payoff" transform="translate(11.455012, 401.419993)">
                <path d="M20.0112067,44.5800073 L22.5912072,44.5800073 L22.5912072,27.9600046 L33.751209,27.9600046 C42.6312105,27.9600046 48.9912115,23.1000038 48.9912115,14.4000024 C48.9912115,5.7000002 42.5112067,1.2000002 33.3912089,1.2000002 L20.0112067,1.2000002 L20.0112067,44.5800073 Z M22.5912072,25.3800042 L22.5912072,3.72000061 L33.3312089,3.72000061 C41.2512102,3.72000061 46.3512111,7.02000115 46.3512111,14.2200006 C46.3512111,21.4200035 41.2512102,25.3800042 33.751209,25.3800042 L22.5912072,25.3800042 Z" id="Shape"></path>
                <path d="M62.3736204,44.8200073 C62.7936205,44.8200073 63.6336206,44.7600073 64.3536207,44.5800073 L64.3536207,42.840007 L62.4336204,42.840007 C60.7536201,42.840007 58.9536198,41.3400068 58.9536198,37.3200061 L58.9536198,0 L56.6136195,0 L56.6136195,37.3200061 C56.6136195,41.5800068 58.2336197,44.8200073 62.3736204,44.8200073 Z" id="Path"></path>
                <path d="M72.3960327,29.6400049 L95.7960366,29.6400049 L95.7960366,27.9600021 C95.7960366,18.420003 91.1160358,12.9600021 83.1960345,12.9600021 C74.7360331,12.9600021 69.8760323,19.0800031 69.8760323,29.3400048 C69.8760323,39.4800065 75.4560332,45.1800074 83.5560345,45.1800074 C89.0760355,45.1800074 93.6960362,42.600007 95.4360365,36.300006 L92.9160361,36.300006 C91.5960359,40.4400066 88.4160353,42.840007 83.5560345,42.840007 C75.7560333,42.840007 72.3960327,36.660006 72.3960327,29.6400049 Z M72.4560327,27.3600045 C72.3960327,21.5400035 75.5760332,15.3000025 83.1360345,15.3000025 C90.0960356,15.3000025 93.3360361,20.4600034 93.3360361,27.3600045 L72.4560327,27.3600045 Z" id="Shape"></path>
                <path d="M113.228447,45.1800074 C117.788448,45.1800074 122.228448,43.7400072 124.928449,38.5800063 L125.048449,44.5800073 L127.208449,44.5800073 L127.208449,23.1000038 C127.208449,16.8000028 122.708449,12.9600021 116.108447,12.9600021 C108.908446,12.9600021 105.128446,17.4600021 104.828446,21.8400036 L107.348446,21.8400036 C108.008446,17.5800029 111.488447,15.2400025 115.988447,15.2400025 C121.268445,15.2400025 124.868449,18.180003 124.868449,23.1600038 L124.868449,26.1600043 L117.728448,26.4000043 C107.408446,26.7600044 103.268445,29.7000049 103.268445,36.660006 C103.268445,41.9400069 107.108446,45.1800074 113.228447,45.1800074 Z M113.588447,42.960007 C108.848446,42.960007 105.728446,40.5600066 105.728446,36.480006 C105.728446,31.0800051 108.968446,28.8000047 118.868448,28.6200047 L124.868449,28.5000047 L124.868449,34.5600057 C124.868449,38.7600064 118.748448,42.960007 113.588447,42.960007 Z" id="Shape"></path>
                <path d="M147.31086,45.1800074 C153.130861,45.1800074 158.110862,42.1800069 158.110862,36.480006 C158.110862,33.1800054 156.430858,30.1500049 151.930858,28.8900047 L144.55086,26.8500044 C141.070859,25.8900042 139.030859,24.480004 139.030859,21.6600036 C139.030859,18.210003 141.280859,15.2400025 147.19086,15.2400025 C151.270861,15.2400025 154.330861,16.9800028 154.840861,21.1800035 L157.330862,21.1800035 C157.060862,16.2600027 153.340861,12.9600021 147.19086,12.9600021 C140.770859,12.9600021 136.570858,16.4100027 136.570858,21.6600036 C136.570858,25.8000042 139.390859,27.9300046 143.89086,29.1900048 L151.270861,31.2300051 C154.150861,32.0400053 155.650862,33.7200055 155.650862,36.600006 C155.650862,40.5600066 152.290861,42.900007 147.31086,42.900007 C142.330859,42.900007 138.760859,40.6200067 137.920859,36.300006 L135.430858,36.300006 C136.090858,42.0000069 140.770859,45.1800074 147.31086,45.1800074 Z" id="Path"></path>
                <path d="M167.653272,29.6400049 L191.053276,29.6400049 L191.053276,27.9600021 C191.053276,18.420003 186.373275,12.9600021 178.453273,12.9600021 C169.993272,12.9600021 165.133271,19.0800031 165.133271,29.3400048 C165.133271,39.4800065 170.713272,45.1800074 178.813274,45.1800074 C184.333274,45.1800074 188.953275,42.600007 190.693275,36.300006 L188.173275,36.300006 C186.853275,40.4400066 183.673274,42.840007 178.813274,42.840007 C171.013272,42.840007 167.653272,36.660006 167.653272,29.6400049 Z M167.713272,27.3600045 C167.653272,21.5400035 170.833272,15.3000025 178.393273,15.3000025 C185.353275,15.3000025 188.593275,20.4600034 188.593275,27.3600045 L167.713272,27.3600045 Z" id="Shape"></path>
                <path d="M213.618098,29.6400049 L237.018102,29.6400049 L237.018102,27.9600021 C237.018102,18.420003 232.338101,12.9600021 224.418099,12.9600021 C215.958098,12.9600021 211.098097,19.0800031 211.098097,29.3400048 C211.098097,39.4800065 216.678098,45.1800074 224.7781,45.1800074 C230.2981,45.1800074 234.918101,42.600007 236.658101,36.300006 L234.138101,36.300006 C232.818101,40.4400066 229.6381,42.840007 224.7781,42.840007 C216.978098,42.840007 213.618098,36.660006 213.618098,29.6400049 Z M213.678098,27.3600045 C213.618098,21.5400035 216.798098,15.3000025 224.358099,15.3000025 C231.318101,15.3000025 234.558101,20.4600034 234.558101,27.3600045 L213.678098,27.3600045 Z" id="Shape"></path>
                <polygon id="Path" points="268.700515 44.5800073 256.700513 28.5000047 267.800514 13.5600022 264.860514 13.5600022 255.140512 26.6400044 245.480511 13.5600022 242.54051 13.5600022 253.640512 28.5000047 241.64051 44.5800073 244.580511 44.5800073 255.140512 30.360005 265.760514 44.5800073"></polygon>
                <path d="M287.362926,12.9600021 C278.962924,12.9600021 273.922923,19.6800032 273.922923,29.2200048 C273.922923,38.7000063 278.962924,45.1800074 287.362926,45.1800074 C292.462926,45.1800074 297.682927,42.900007 299.122927,36.300006 L296.602927,36.300006 C295.582927,40.9200067 291.802926,42.9600021 287.602926,42.9600021 C280.582924,42.9600021 276.382924,37.4400061 276.382924,29.1000048 C276.382924,20.8200034 280.702924,15.2400025 287.662926,15.2400025 C291.562926,15.2400025 295.222927,17.0400028 296.602927,21.9600021 L299.122927,21.8400036 C297.862927,15.6000026 292.582926,12.9600021 287.362926,12.9600021 Z" id="Path"></path>
                <path d="M319.945337,45.1200074 C324.505339,45.1800074 328.28534,42.540007 329.36534,38.8200064 L329.54534,44.5200073 L331.70534,44.5200073 L331.70534,13.4400022 L329.36534,13.4400022 L329.36534,33.6600055 C329.36534,40.0200066 324.565339,42.840007 319.765338,42.840007 C315.985338,42.840007 310.285337,40.9800067 310.285337,34.1400056 L310.285337,13.4400022 L307.945337,13.4400022 L307.945337,34.1400056 C307.945337,42.480007 314.785338,45.0600074 319.945337,45.1200074 Z" id="Path"></path>
                <path d="M352.107751,45.1800074 C357.927752,45.1800074 362.907753,42.1800069 362.907753,36.480006 C362.907753,33.1800054 361.227749,30.1500049 356.727749,28.8900047 L349.347751,26.8500044 C345.86775,25.8900042 343.82775,24.480004 343.82775,21.6600036 C343.82775,18.210003 346.07775,15.2400025 351.987751,15.2400025 C356.067752,15.2400025 359.127752,16.9800028 359.637752,21.1800035 L362.127753,21.1800035 C361.857753,16.2600027 358.137752,12.9600021 351.987751,12.9600021 C345.56775,12.9600021 341.367749,16.4100027 341.367749,21.6600036 C341.367749,25.8000042 344.18775,27.9300046 348.687751,29.1900048 L356.067752,31.2300051 C358.947752,32.0400053 360.447753,33.7200055 360.447753,36.600006 C360.447753,40.5600066 357.087752,42.900007 352.107751,42.900007 C347.12775,42.900007 343.55775,40.6200067 342.71775,36.300006 L340.227749,36.300006 C340.887749,42.0000069 345.56775,45.1800074 352.107751,45.1800074 Z" id="Path"></path>
                <path d="M372.450163,29.6400049 L395.850167,29.6400049 L395.850167,27.9600021 C395.850167,18.420003 391.170166,12.9600021 383.250164,12.9600021 C374.790163,12.9600021 369.930162,19.0800031 369.930162,29.3400048 C369.930162,39.4800065 375.510163,45.1800074 383.610165,45.1800074 C389.130165,45.1800074 393.750166,42.600007 395.490166,36.300006 L392.970166,36.300006 C391.650166,40.4400066 388.470165,42.840007 383.610165,42.840007 C375.810163,42.840007 372.450163,36.660006 372.450163,29.6400049 Z M372.510163,27.3600045 C372.450163,21.5400035 375.630163,15.3000025 383.190164,15.3000025 C390.150166,15.3000025 393.390166,20.4600034 393.390166,27.3600045 L372.510163,27.3600045 Z" id="Shape"></path>
                <path d="M430.294988,45.1200074 C434.854991,45.1800074 438.634992,42.540007 439.714992,38.8200064 L439.894992,44.5200073 L442.054992,44.5200073 L442.054992,13.4400022 L439.714992,13.4400022 L439.714992,33.6600055 C439.714992,40.0200066 434.914991,42.840007 430.11499,42.840007 C426.33499,42.840007 420.634989,40.9800067 420.634989,34.1400056 L420.634989,13.4400022 L418.294988,13.4400022 L418.294988,34.1400056 C418.294988,42.480007 425.13499,45.0600074 430.294988,45.1200074 Z" id="Path"></path>
                <path d="M462.457403,45.1800074 C468.277404,45.1800074 473.257405,42.1800069 473.257405,36.480006 C473.257405,33.1800054 471.577401,30.1500049 467.077401,28.8900047 L459.697403,26.8500044 C456.217402,25.8900042 454.177402,24.480004 454.177402,21.6600036 C454.177402,18.210003 456.427402,15.2400025 462.337403,15.2400025 C466.417404,15.2400025 469.477404,16.9800028 469.987404,21.1800035 L472.477405,21.1800035 C472.207405,16.2600027 468.487404,12.9600021 462.337403,12.9600021 C455.917402,12.9600021 451.717401,16.4100027 451.717401,21.6600036 C451.717401,25.8000042 454.537402,27.9300046 459.037403,29.1900048 L466.417404,31.2300051 C469.297404,32.0400053 470.797405,33.7200055 470.797405,36.600006 C470.797405,40.5600066 467.437404,42.900007 462.457403,42.900007 C457.477402,42.900007 453.907402,40.6200067 453.067402,36.300006 L450.577401,36.300006 C451.237401,42.0000069 455.917402,45.1800074 462.457403,45.1800074 Z" id="Path"></path>
                <path d="M484.239815,15.3000025 L480.579814,15.3000025 L480.579814,19.9800033 L484.239815,19.9800033 L484.239815,15.3000025 Z M484.239815,39.7800065 L480.579814,39.7800065 L480.579814,44.4000073 L484.239815,44.4000073 L484.239815,39.7800065 Z" id="Shape"></path>
                <polygon id="Path" points="545.744647 13.5600022 543.284647 13.5600022 535.424645 41.8800069 534.704645 41.8800069 525.944644 13.5600022 523.784643 13.5600022 515.504642 42.0000069 514.784642 42.0000069 506.504641 13.5600022 503.98464 13.5600022 513.104642 44.5800073 517.184642 44.5800073 524.864644 17.5800029 533.204645 44.5800073 537.164646 44.5800073"></polygon>
                <path d="M552.887054,29.6400049 L576.287058,29.6400049 L576.287058,27.9600021 C576.287058,18.420003 571.607057,12.9600021 563.687055,12.9600021 C555.227054,12.9600021 550.367053,19.0800031 550.367053,29.3400048 C550.367053,39.4800065 555.947054,45.1800074 564.047056,45.1800074 C569.567056,45.1800074 574.187057,42.600007 575.927057,36.300006 L573.407057,36.300006 C572.087057,40.4400066 568.907056,42.840007 564.047056,42.840007 C556.247054,42.840007 552.887054,36.660006 552.887054,29.6400049 Z M552.947054,27.3600045 C552.887054,21.5400035 556.067054,15.3000025 563.627055,15.3000025 C570.587057,15.3000025 573.827057,20.4600034 573.827057,27.3600045 L552.947054,27.3600045 Z" id="Shape"></path>
                <polygon id="Path" points="579.709466 12.6600021 581.629466 12.6600021 585.769467 5.28000087 585.769467 1.2000002 580.789466 1.2000002 580.789466 5.94000097 582.889467 5.94000097"></polygon>
                <path d="M592.19188,44.5800073 L594.53188,44.5800073 L594.53188,22.9800038 C594.53188,17.7000029 599.271881,15.4200025 604.791882,15.4800025 C605.331882,15.4800025 605.361882,15.4800025 605.661882,15.6600026 L605.661882,13.1700022 C605.421882,13.0200021 605.121882,12.9600021 604.791882,12.9600021 C599.751881,12.9600021 595.97188,15.2400025 594.35188,18.180003 L594.35188,13.5600022 L592.19188,13.5600022 L592.19188,44.5800073 Z" id="Path"></path>
                <path d="M613.404293,29.6400049 L636.804297,29.6400049 L636.804297,27.9600021 C636.804297,18.420003 632.124296,12.9600021 624.204294,12.9600021 C615.744293,12.9600021 610.884292,19.0800031 610.884292,29.3400048 C610.884292,39.4800065 616.464293,45.1800074 624.564295,45.1800074 C630.084295,45.1800074 634.704296,42.600007 636.444296,36.300006 L633.924296,36.300006 C632.604296,40.4400066 629.424295,42.840007 624.564295,42.840007 C616.764293,42.840007 613.404293,36.660006 613.404293,29.6400049 Z M613.464293,27.3600045 C613.404293,21.5400035 616.584293,15.3000025 624.144294,15.3000025 C631.104296,15.3000025 634.344296,20.4600034 634.344296,27.3600045 L613.464293,27.3600045 Z" id="Shape"></path>
                <path d="M672.389121,45.1800074 C680.849122,45.1800074 685.109123,38.9400064 685.109123,28.9800048 C685.109123,20.2200033 681.329122,12.9600021 672.389121,12.9600021 C664.589119,12.9600021 662.189119,18.060003 661.589119,19.3800032 L661.589119,0 L659.249118,0 L659.249118,44.5800073 L661.349119,44.5800073 L661.529119,38.2200063 C662.009119,39.6600065 664.109119,45.1800074 672.389121,45.1800074 Z M672.329121,42.960007 C665.90912,42.960007 661.709119,38.3400063 661.589119,33.9000056 L661.589119,24.2400025 C661.829119,22.9200038 662.729119,15.2400025 672.149121,15.2400025 C679.169122,15.2400025 682.589119,20.6400034 682.589119,28.9800048 C682.589119,38.5800063 678.449122,42.960007 672.329121,42.960007 Z" id="Shape"></path>
                <path d="M705.331531,45.1200074 C709.891534,45.1800074 713.671535,42.540007 714.751535,38.8200064 L714.931535,44.5200073 L717.091535,44.5200073 L717.091535,13.4400022 L714.751535,13.4400022 L714.751535,33.6600055 C714.751535,40.0200066 709.951534,42.840007 705.151533,42.840007 C701.371533,42.840007 695.671532,40.9800067 695.671532,34.1400056 L695.671532,13.4400022 L693.331531,13.4400022 L693.331531,34.1400056 C693.331531,42.480007 700.171533,45.0600074 705.331531,45.1200074 Z" id="Path"></path>
                <path d="M737.493946,45.1800074 C743.313947,45.1800074 748.293948,42.1800069 748.293948,36.480006 C748.293948,33.1800054 746.613944,30.1500049 742.113944,28.8900047 L734.733946,26.8500044 C731.253945,25.8900042 729.213945,24.480004 729.213945,21.6600036 C729.213945,18.210003 731.463945,15.2400025 737.373946,15.2400025 C741.453947,15.2400025 744.513947,16.9800028 745.023947,21.1800035 L747.513948,21.1800035 C747.243948,16.2600027 743.523947,12.9600021 737.373946,12.9600021 C730.953945,12.9600021 726.753944,16.4100027 726.753944,21.6600036 C726.753944,25.8000042 729.573945,27.9300046 734.073946,29.1900048 L741.453947,31.2300051 C744.333947,32.0400053 745.833948,33.7200055 745.833948,36.600006 C745.833948,40.5600066 742.473947,42.900007 737.493946,42.900007 C732.513945,42.900007 728.943945,40.6200067 728.103945,36.300006 L725.613944,36.300006 C726.273944,42.0000069 730.953945,45.1800074 737.493946,45.1800074 Z" id="Path"></path>
                <path d="M758.496358,54.4800089 C762.216359,54.4800089 765.036359,52.9800087 766.596359,49.080008 L780.156362,13.5600022 L777.876361,13.5600022 L767.196359,41.2200068 L756.336358,13.5600022 L753.816357,13.5600022 L765.936359,44.4000073 L764.376359,48.540008 C763.476359,50.7000083 761.916359,52.3800086 758.076358,52.3800086 L754.776357,52.3800086 L754.776357,54.0000089 C754.776357,54.0000089 755.496357,54.4800089 758.496358,54.4800089 Z" id="Path"></path>
                <path d="M13.1400022,124.180007 C21.6000035,124.180007 25.8600042,117.940006 25.8600042,107.980005 C25.8600042,99.2200033 22.0800036,91.9600021 13.1400022,91.9600021 C5.34000088,91.9600021 2.94000048,97.060003 2.34000038,98.3800032 L2.34000038,79 L0,79 L0,123.580007 L2.10000034,123.580007 L2.28000037,117.220006 C2.76000045,118.660007 4.8600008,124.180007 13.1400022,124.180007 Z M13.0800021,121.960007 C6.66000109,121.960007 2.4600004,117.340006 2.34000038,112.900006 L2.34000038,103.240002 C2.58000042,101.920004 3.48000057,94.2400025 12.9000021,94.2400025 C19.9200033,94.2400025 23.3400004,99.6400034 23.3400004,107.980005 C23.3400004,117.580006 19.2000031,121.960007 13.0800021,121.960007 Z" id="Shape"></path>
                <path d="M46.082413,124.120007 C50.6424157,124.180007 54.4224163,121.540007 55.5024165,117.820006 L55.6824165,123.520007 L57.8424169,123.520007 L57.8424169,92.4400022 L55.5024165,92.4400022 L55.5024165,112.660006 C55.5024165,119.020007 50.7024157,121.840007 45.9024149,121.840007 C42.1224143,121.840007 36.4224134,119.980007 36.4224134,113.140006 L36.4224134,92.4400022 L34.082413,92.4400022 L34.082413,113.140006 C34.082413,121.480007 40.9224141,124.060007 46.082413,124.120007 Z" id="Path"></path>
                <path d="M71.0448266,80.2600002 L68.1648261,80.2600002 L68.1648261,83.8600008 L71.0448266,83.8600008 L71.0448266,80.2600002 Z M70.8048265,92.5600022 L68.4648261,92.5600022 L68.4648261,123.580007 L70.8048265,123.580007 L70.8048265,92.5600022 Z" id="Shape"></path>
                <path d="M86.8272399,123.820007 C87.24724,123.820007 88.0872401,123.760007 88.8072402,123.580007 L88.8072402,121.840007 L86.8872399,121.840007 C85.2072396,121.840007 83.4072393,120.340007 83.4072393,116.320006 L83.4072393,79 L81.067239,79 L81.067239,116.320006 C81.067239,120.580007 82.6872392,123.820007 86.8272399,123.820007 Z" id="Path"></path>
                <path d="M107.049654,124.180007 C115.329652,124.180007 117.429656,118.660007 117.909656,117.220006 L118.089656,123.580007 L120.189656,123.580007 L120.189656,79 L117.849656,79 L117.849656,97.9000031 C117.249656,96.5800029 114.309655,91.9600021 107.049654,91.9600021 C98.1096524,91.9600021 94.3296518,99.2200033 94.3296518,107.980005 C94.3296518,117.940006 98.5896525,124.180007 107.049654,124.180007 Z M107.109654,121.960007 C100.989653,121.960007 96.8496522,117.580006 96.8496522,107.980005 C96.8496522,99.6400034 100.269653,94.2400025 107.289654,94.2400025 C115.989655,94.2400025 117.609656,101.920004 117.849652,103.240002 L117.849652,112.900006 C117.729656,117.340006 113.529655,121.960007 107.109654,121.960007 Z" id="Shape"></path>
                <path d="M133.392066,80.2600002 L130.512065,80.2600002 L130.512065,83.8600008 L133.392066,83.8600008 L133.392066,80.2600002 Z M133.152066,92.5600022 L130.812065,92.5600022 L130.812065,123.580007 L133.152066,123.580007 L133.152066,92.5600022 Z" id="Shape"></path>
                <path d="M143.714478,123.580007 L146.054478,123.580007 L146.054478,101.980004 C146.054478,96.7000029 150.794479,94.2400025 156.31448,94.2400025 C161.594481,94.2400025 164.834481,97.480003 164.834481,103.480004 L164.834481,123.580007 L167.174482,123.580007 L167.174482,103.480004 C167.174482,95.5600027 162.494481,91.9600021 156.31448,91.9600021 C151.274479,91.9600021 147.494479,94.2400025 145.874478,97.180003 L145.874478,92.5600022 L143.714478,92.5600022 L143.714478,123.580007 Z" id="Path"></path>
                <path d="M188.836893,133.840009 C197.656894,133.840009 202.816895,130.540008 202.816895,124.720007 C202.816895,120.040007 200.056895,117.160006 193.816894,116.800006 C190.876893,116.620006 188.596893,116.500006 186.796891,116.380006 C181.816892,116.020006 180.376892,115.540006 180.376892,114.220006 C180.376892,112.900006 182.236892,111.460005 188.416893,111.340005 L189.076893,111.340005 C197.296891,111.340005 200.896895,107.200005 200.896895,101.980004 C200.896895,100.420004 200.176895,98.0200031 199.516895,96.8200029 L205.036896,95.6200027 L205.036896,92.1400022 C204.256895,92.4400022 199.096895,94.6600026 198.316895,95.0200026 C195.916894,93.0400023 193.336894,92.0800021 189.496893,92.0800021 C181.756892,92.0800021 177.196891,95.8000028 177.196891,101.980004 C177.196891,105.880004 178.636891,108.160005 182.536892,110.260005 C179.536891,111.160005 177.916891,112.600006 177.916891,114.280006 C177.916891,116.140006 179.356891,116.800006 180.496892,117.520006 C179.596891,118.300006 174.796891,120.460007 174.796891,125.140008 C174.796891,130.600008 179.836891,133.840009 188.836893,133.840009 Z M189.136893,109.120005 C182.956892,109.120005 179.536891,106.600005 179.536891,101.860004 C179.536891,97.060003 183.016892,94.3000025 189.136893,94.3000025 C194.776894,94.3000025 198.556895,96.7000029 198.556895,101.860004 C198.556895,106.660005 195.436894,109.120005 189.136893,109.120005 Z M189.376893,131.620009 C181.696892,131.620009 177.256891,129.220008 177.256891,124.900008 C177.256891,121.060007 181.576892,118.420006 183.436892,118.540006 L193.756891,119.200007 C198.676895,119.500007 200.356895,121.480007 200.356895,124.720007 C200.356895,129.460008 195.316894,131.620009 189.376893,131.620009 Z" id="Shape"></path>
                <path d="M235.821718,124.180007 C240.321719,124.180007 244.43172,122.770007 247.01172,117.760006 L247.28172,123.580007 L250.701721,123.580007 L250.701721,102.010004 C250.701721,95.8300028 246.41172,91.9600021 239.091719,91.9600021 C231.771718,91.9600021 227.541717,96.1900028 227.211717,101.080004 L230.931718,101.080004 C231.621718,97.180003 234.891718,95.1400026 238.911719,95.1400026 C243.68172,95.1100026 246.86172,97.7200031 246.86172,102.190004 L246.86172,104.920004 L240.531719,105.100004 C230.061717,105.400004 225.741717,108.520005 225.741717,115.420006 C225.741717,120.910007 229.731717,124.180007 235.821718,124.180007 Z M236.811719,121.090007 C232.521718,121.090007 229.611717,118.870007 229.611717,115.060006 C229.611717,110.080005 233.031718,108.040005 241.581719,107.890005 L246.86172,107.770005 L246.86172,113.470006 C246.86172,117.310006 241.491719,121.090007 236.811719,121.090007 Z" id="Shape"></path>
                <path d="M259.82413,123.580007 L263.754131,123.580007 L263.754131,102.160004 C263.754131,97.240003 268.044131,95.2600027 271.584132,95.2600027 C274.764132,95.2600027 278.604133,97.270003 278.604133,101.380004 L278.604133,123.580007 L282.504134,123.580007 L282.504134,102.490004 C282.504134,96.9100029 286.854134,95.2600027 290.364135,95.2600027 C294.054136,95.2600027 297.414136,96.8800029 297.414136,103.420004 L297.414136,123.580007 L301.344137,123.580007 L301.344137,103.180004 C301.344137,93.8500024 295.554136,91.9600021 291.234135,91.9600021 C287.184134,91.9600021 283.674134,93.8500024 281.784134,96.9700029 C280.284133,93.6400024 276.204133,91.9600021 272.694132,91.9600021 C267.894131,91.9600021 265.164131,94.3300025 263.574131,97.030003 L263.574131,92.5600022 L259.82413,92.5600022 L259.82413,123.580007 Z" id="Path"></path>
                <path d="M319.136544,124.180007 C323.636545,124.180007 327.746546,122.770007 330.326546,117.760006 L330.596546,123.580007 L334.016547,123.580007 L334.016547,102.010004 C334.016547,95.8300028 329.726546,91.9600021 322.406545,91.9600021 C315.086544,91.9600021 310.856543,96.1900028 310.526543,101.080004 L314.246544,101.080004 C314.936544,97.180003 318.206544,95.1400026 322.226545,95.1400026 C326.996546,95.1100026 330.176546,97.7200031 330.176546,102.190004 L330.176546,104.920004 L323.846545,105.100004 C313.376543,105.400004 309.056543,108.520005 309.056543,115.420006 C309.056543,120.910007 313.046543,124.180007 319.136544,124.180007 Z M320.126545,121.090007 C315.836544,121.090007 312.926543,118.870007 312.926543,115.060006 C312.926543,110.080005 316.346544,108.040005 324.896545,107.890005 L330.176546,107.770005 L330.176546,113.470006 C330.176546,117.310006 324.806545,121.090007 320.126545,121.090007 Z" id="Shape"></path>
                <polygon id="Path" points="341.458956 123.580007 364.79896 123.580007 364.79896 120.550007 346.048957 120.550007 364.61896 95.2900027 364.61896 92.5600022 342.178956 92.5600022 342.178956 95.5900027 360.088959 95.5900027 341.458956 120.850007"></polygon>
                <path d="M378.54137,80.2600002 L374.281369,80.2600002 L374.281369,84.910001 L378.54137,84.910001 L378.54137,80.2600002 Z M378.33137,92.5600022 L374.521369,92.5600022 L374.521369,123.580007 L378.33137,123.580007 L378.33137,92.5600022 Z" id="Shape"></path>
                <path d="M388.263782,123.580007 L392.193783,123.580007 L392.193783,102.340004 C392.193783,97.6600031 396.453783,95.4400027 401.343784,95.4400027 C406.023785,95.4400027 409.023785,98.3200032 409.023785,103.600004 L409.023785,123.580007 L412.953786,123.580007 L412.953786,103.330004 C412.953786,95.7700027 408.153785,92.0500021 402.093784,92.0500021 C397.083783,92.0500021 393.693783,94.2400025 392.013783,97.030003 L392.013783,92.5600022 L388.263782,92.5600022 L388.263782,123.580007 Z" id="Path"></path>
                <path d="M434.556197,133.840002 C443.886199,133.840002 449.166199,130.360008 449.166199,124.510007 C449.166199,119.800007 446.226199,116.740006 439.596198,116.350006 C436.716197,116.170006 434.406197,116.050006 432.726197,115.930006 C428.076196,115.600006 426.546196,115.210006 426.546196,113.980006 C426.546196,112.810006 428.136196,111.610005 433.356197,111.490005 C433.746197,111.490005 434.256197,111.520005 434.616197,111.520005 C443.106198,111.520005 446.976199,107.170005 446.976199,101.920004 C446.976199,100.570004 446.376199,98.3800032 445.776199,97.240003 L451.2662,96.1300028 L451.2662,91.8400021 C450.0362,92.3200022 444.996199,94.4500025 443.946199,94.9000026 C441.576198,93.0400023 439.026198,92.0800021 435.096197,92.0800021 C427.236196,92.0800021 422.196195,95.7400027 422.196195,101.950004 C422.196195,105.730004 423.756195,108.310005 427.776196,110.380005 C424.446195,111.250005 422.706195,112.840002 422.706195,114.640006 C422.706195,116.770006 424.506195,117.550006 425.616196,118.210006 C424.776195,118.900007 419.826195,120.820007 419.826195,125.410008 C419.826195,130.600008 425.016195,133.840002 434.556197,133.840002 Z M434.736197,108.640005 C429.216196,108.640005 426.126196,106.240004 426.126196,101.920004 C426.126196,97.540003 429.276196,94.9000026 434.736197,94.9000026 C439.776198,94.9000026 443.196198,97.240003 443.196198,101.920004 C443.196198,106.300004 440.346198,108.640005 434.736197,108.640005 Z M435.306197,130.960009 C427.926196,130.960009 423.786195,128.890008 423.786195,124.960008 C423.786195,121.600007 427.506196,119.170007 429.606196,119.320007 L439.116198,119.920007 C443.616198,120.190007 445.266199,121.990007 445.266199,124.900008 C445.266199,129.040008 440.946198,130.960009 435.306197,130.960009 Z" id="Shape"></path>
                <polygon id="Path" points="474.491021 80.2000002 474.491021 123.580007 476.831022 123.580007 476.831022 80.2000002"></polygon>
                <path d="M500.233436,124.180007 C508.753437,124.180007 513.553438,117.640006 513.553438,108.160005 C513.553438,98.6800032 508.753437,91.9600021 500.293436,91.9600021 C491.713435,91.9600021 486.853434,98.7400032 486.853434,108.280005 C486.853434,117.700006 491.593435,124.180007 500.233436,124.180007 Z M500.353436,121.960007 C493.093435,121.960007 489.313434,116.380006 489.313434,108.160005 C489.313434,99.8800034 493.093435,94.2400025 500.293436,94.2400025 C507.433437,94.2400025 511.093438,99.8200034 511.093438,108.160005 C511.093438,116.440006 507.553437,121.960007 500.353436,121.960007 Z" id="Shape"></path>
                <polygon id="Path" points="513.375847 82.6000006 528.255849 82.6000006 528.255849 123.580007 530.595849 123.580007 530.595849 82.6000006 544.275852 82.6000006 544.275852 80.2000002 513.375847 80.2000002"></polygon>
                <path d="M565.820673,133.240009 L568.160673,133.240009 L568.160673,119.500007 C570.860674,122.620007 573.980674,124.180007 577.580675,124.180007 C586.160676,124.180007 591.620677,117.460002 591.620677,107.500005 C591.620677,97.120003 585.740676,91.9600021 578.240675,91.9600021 C571.700674,91.9600021 569.000674,96.0400028 568.040673,97.180003 L568.040673,92.5600022 L565.820673,92.5600022 L565.820673,133.240009 Z M577.520675,121.960007 C573.920674,121.960007 570.980674,120.220007 568.160673,117.520006 L568.160673,102.280004 C568.160673,98.8000032 572.120674,94.2400025 577.940675,94.2400025 C583.820676,94.2400025 589.160673,98.4400032 589.160673,107.740002 C589.160673,116.620006 584.240676,121.960007 577.520675,121.960007 Z" id="Shape"></path>
                <path d="M600.143086,123.580007 L602.483086,123.580007 L602.483086,101.980004 C602.483086,96.7000029 607.223087,94.4200025 612.743088,94.4800025 C613.283088,94.4800025 613.313088,94.4800025 613.613088,94.6600026 L613.613088,92.1700022 C613.373088,92.0200021 613.073088,91.9600021 612.743088,91.9600021 C607.703087,91.9600021 603.923087,94.2400025 602.303086,97.180003 L602.303086,92.5600022 L600.143086,92.5600022 L600.143086,123.580007 Z" id="Path"></path>
                <path d="M632.215501,124.180007 C640.735502,124.180007 645.535503,117.640006 645.535503,108.160005 C645.535503,98.6800032 640.735502,91.9600021 632.275501,91.9600021 C623.6955,91.9600021 618.835499,98.7400032 618.835499,108.280005 C618.835499,117.700006 623.5755,124.180007 632.215501,124.180007 Z M632.335501,121.960007 C625.0755,121.960007 621.295499,116.380006 621.295499,108.160005 C621.295499,99.8800034 625.0755,94.2400025 632.275501,94.2400025 C639.415502,94.2400025 643.075503,99.8200034 643.075503,108.160005 C643.075503,116.440006 639.535502,121.960007 632.335501,121.960007 Z" id="Shape"></path>
                <path d="M665.577914,124.180007 C673.857912,124.180007 675.957916,118.660007 676.437916,117.220006 L676.617916,123.580007 L678.717916,123.580007 L678.717916,79 L676.377916,79 L676.377916,97.9000031 C675.777916,96.5800029 672.837915,91.9600021 665.577914,91.9600021 C656.637912,91.9600021 652.857912,99.2200033 652.857912,107.980005 C652.857912,117.940006 657.117913,124.180007 665.577914,124.180007 Z M665.637914,121.960007 C659.517913,121.960007 655.377912,117.580006 655.377912,107.980005 C655.377912,99.6400034 658.797913,94.2400025 665.817914,94.2400025 C674.517915,94.2400025 676.137916,101.920004 676.377912,103.240002 L676.377912,112.900006 C676.257916,117.340006 672.057915,121.960007 665.637914,121.960007 Z" id="Shape"></path>
                <path d="M700.440325,124.120007 C705.000328,124.180007 708.780328,121.540007 709.860329,117.820006 L710.040329,123.520007 L712.200329,123.520007 L712.200329,92.4400022 L709.860329,92.4400022 L709.860329,112.660006 C709.860329,119.020007 705.060328,121.840007 700.260327,121.840007 C696.480326,121.840007 690.780325,119.980007 690.780325,113.140006 L690.780325,92.4400022 L688.440325,92.4400022 L688.440325,113.140006 C688.440325,121.480007 695.280326,124.060007 700.440325,124.120007 Z" id="Path"></path>
                <path d="M734.16274,91.9600021 C725.762739,91.9600021 720.722738,98.6800032 720.722738,108.220005 C720.722738,117.700006 725.762739,124.180007 734.16274,124.180007 C739.262741,124.180007 744.482742,121.900007 745.922742,115.300006 L743.402742,115.300006 C742.382741,119.920007 738.602741,121.960002 734.40274,121.960002 C727.382739,121.960002 723.182738,116.440006 723.182738,108.100005 C723.182738,99.8200034 727.502739,94.2400025 734.46274,94.2400025 C738.362741,94.2400025 742.022741,96.0400028 743.402742,100.960002 L745.922742,100.840004 C744.662742,94.6000026 739.382741,91.9600021 734.16274,91.9600021 Z" id="Path"></path>
                <path d="M766.865153,94.6000026 L766.865153,92.5600022 L759.725152,92.5600022 L759.725152,83.8600008 L757.865152,83.8600008 L757.385152,92.5600022 L752.345151,92.5600022 L752.345151,94.6000026 L757.385152,94.6000026 L757.385152,116.620006 C757.385152,121.600007 758.705152,123.580007 763.385153,123.580007 C764.885153,123.580007 766.385153,123.520007 767.165153,123.280007 L767.165153,121.240007 L764.525153,121.240007 C760.625152,121.240007 759.725152,120.940007 759.725152,116.620006 L759.725152,94.6000026 L766.865153,94.6000026 Z" id="Path"></path>
                <path d="M786.667566,124.180007 C792.487567,124.180007 797.467568,121.180007 797.467568,115.480006 C797.467568,112.180005 795.787564,109.150005 791.287564,107.890005 L783.907565,105.850004 C780.427565,104.890004 778.387564,103.480004 778.387564,100.660004 C778.387564,97.210003 780.637565,94.2400025 786.547566,94.2400025 C790.627566,94.2400025 793.687567,95.9800028 794.197567,100.180003 L796.687567,100.180003 C796.417567,95.2600027 792.697567,91.9600021 786.547566,91.9600021 C780.127565,91.9600021 775.927564,95.4100027 775.927564,100.660004 C775.927564,104.800004 778.747564,106.930005 783.247565,108.190005 L790.627566,110.230005 C793.507567,111.040005 795.007567,112.720006 795.007567,115.600006 C795.007567,119.560007 791.647567,121.900007 786.667566,121.900007 C781.687565,121.900007 778.117564,119.620007 777.277564,115.300006 L774.787564,115.300006 C775.447564,121.000007 780.127565,124.180007 786.667566,124.180007 Z" id="Path"></path>
            </g>
        </g>
    </g>
</svg>